HIERARCHY
ROOT Hips
{
	OFFSET -13.091600 -28.302996 44.698402
	CHANNELS 6 Xposition Yposition Zposition Zrotation Xrotation Yrotation
	JOINT Chest
	{
		OFFSET -0.673000 0.623899 5.369202
		CHANNELS 6 Xposition Yposition Zposition Zrotation Xrotation Yrotation
		JOINT Chest2
		{
			OFFSET 0.000000 0.000000 4.415001
			CHANNELS 6 Xposition Yposition Zposition Zrotation Xrotation Yrotation
			JOINT Neck
			{
				OFFSET 0.000000 0.000002 10.273300
				CHANNELS 6 Xposition Yposition Zposition Zrotation Xrotation Yrotation
				JOINT Head
				{
					OFFSET 0.000000 0.000000 2.173897
					CHANNELS 6 Xposition Yposition Zposition Zrotation Xrotation Yrotation
					End Site
					{
						OFFSET 0.000000 0.000000 9.961800
					}
				}
			}
			JOINT LeftCollar
			{
				OFFSET 2.359900 -0.565201 5.928101
				CHANNELS 6 Xposition Yposition Zposition Zrotation Xrotation Yrotation
				JOINT LeftShoulder
				{
					OFFSET 5.443700 0.000000 0.000000
					CHANNELS 6 Xposition Yposition Zposition Zrotation Xrotation Yrotation
					JOINT LeftElbow
					{
						OFFSET 0.000000 0.000000 -10.615799
						CHANNELS 6 Xposition Yposition Zposition Zrotation Xrotation Yrotation
						JOINT LeftWrist
						{
							OFFSET 0.000000 -0.000002 -13.110302
							CHANNELS 6 Xposition Yposition Zposition Zrotation Xrotation Yrotation
							End Site
							{
								OFFSET 0.000000 0.000000 -2.173901
							}
						}
					}
				}
			}
			JOINT RightCollar
			{
				OFFSET -2.636600 -1.718800 6.889698
				CHANNELS 6 Xposition Yposition Zposition Zrotation Xrotation Yrotation
				JOINT RightShoulder
				{
					OFFSET -4.139101 0.000000 0.000000
					CHANNELS 6 Xposition Yposition Zposition Zrotation Xrotation Yrotation
					JOINT RightElbow
					{
						OFFSET 0.000000 0.000000 -10.471802
						CHANNELS 6 Xposition Yposition Zposition Zrotation Xrotation Yrotation
						JOINT RightWrist
						{
							OFFSET 0.000000 0.000000 -12.281898
							CHANNELS 6 Xposition Yposition Zposition Zrotation Xrotation Yrotation
							End Site
							{
								OFFSET 0.000000 -0.000002 -2.173901
							}
						}
					}
				}
			}
		}
	}
	JOINT LeftHip
	{
		OFFSET 2.273400 0.176701 -2.518002
		CHANNELS 6 Xposition Yposition Zposition Zrotation Xrotation Yrotation
		JOINT LeftKnee
		{
			OFFSET 0.000000 -0.000002 -20.456402
			CHANNELS 6 Xposition Yposition Zposition Zrotation Xrotation Yrotation
			JOINT LeftAnkle
			{
				OFFSET 0.000000 -0.000002 -16.635300
				CHANNELS 6 Xposition Yposition Zposition Zrotation Xrotation Yrotation
				End Site
				{
					OFFSET 0.000000 -8.812399 0.000001
				}
			}
		}
	}
	JOINT RightHip
	{
		OFFSET -1.914800 0.018101 -2.699299
		CHANNELS 6 Xposition Yposition Zposition Zrotation Xrotation Yrotation
		JOINT RightKnee
		{
			OFFSET 0.000000 -0.000002 -20.148901
			CHANNELS 6 Xposition Yposition Zposition Zrotation Xrotation Yrotation
			JOINT RightAnkle
			{
				OFFSET 0.000000 -0.000002 -16.838301
				CHANNELS 6 Xposition Yposition Zposition Zrotation Xrotation Yrotation
				End Site
				{
					OFFSET 0.000000 -8.328398 0.000001
				}
			}
		}
	}
}
MOTION
Frames: 6
Frame Time: 0.041667
-17.057701 27.752199 35.969398 2790.378600 41.740574 -14.055930 -0.673002 0.623903 5.369201 -8.121072 20.755775 -10.614048 0.000000 -0.000003 4.415003 3.146619 -5.711899 -0.771232 0.000004 -0.000000 10.273294 -13.189888 -4.080439 3.611506 0.000001 -0.000003 2.173908 0.464075 -5.792583 -0.047780 2.359903 -0.565201 5.928098 8.132562 -4.778980 -32.842411 5.443694 -0.000009 0.000002 -73.670830 318.784681 -132.667327 -0.000003 -0.000001 -10.615796 924.599320 -158.550711 180.342307 -0.000013 0.000005 -13.110308 -1775.705477 208.745198 -35.502039 -2.636598 -1.718803 6.889704 168.877165 -174.952523 199.034677 -4.139093 0.000006 -0.000003 292.279504 -134.741423 693.369768 -0.000004 0.000004 -10.471797 -46.925790 -36.231705 -404.559973 0.000003 -0.000006 -12.281898 374.804554 -21.589787 -9.875712 2.273400 0.176702 -2.518003 -517.856637 -164.056226 -176.828270 -0.000001 -0.000003 -20.456394 858.163819 127.338960 -143.366231 -0.000003 0.000002 -16.635300 -334.533322 27.878430 15.149032 -1.914798 0.018106 -2.699304 64.830858 217.796551 73.811307 0.000003 -0.000006 -20.148901 -415.292167 -240.156555 93.840461 0.000001 -0.000004 -16.838297 676.982724 14.696938 -8.775486
-16.515799 28.029608 35.735802 2792.197944 42.409720 -13.676521 -0.673001 0.623898 5.369205 -7.784398 21.828272 -11.720864 0.000001 0.000000 4.415008 3.091446 -5.859148 -0.809937 -0.000000 -0.000001 10.273301 -13.322458 -5.002403 3.114482 0.000000 -0.000006 2.173903 0.257355 -6.067114 0.055543 2.359900 -0.565203 5.928098 5.112883 -3.166795 -32.099502 5.443692 0.000005 -0.000002 -72.257083 319.819865 -129.947040 0.000000 -0.000005 -10.615795 929.658469 -156.865990 182.198383 -0.000006 -0.000004 -13.110299 -1777.391496 209.008925 -35.415323 -2.636597 -1.718801 6.889705 168.883476 -175.731492 197.280944 -4.139093 0.000006 0.000001 290.844345 -132.580665 691.530808 -0.000005 -0.000005 -10.471797 -49.619589 -37.265980 -408.328298 -0.000002 -0.000003 -12.281902 369.790157 -20.840326 -10.094334 2.273399 0.176702 -2.518002 -514.887308 -162.445531 -175.829109 -0.000001 0.000000 -20.456396 855.032150 126.351533 -140.229576 -0.000007 -0.000002 -16.635298 -330.356962 24.251335 16.869584 -1.914800 0.018102 -2.699299 64.362416 218.219175 71.345991 0.000000 -0.000002 -20.148897 -413.831162 -238.798877 93.446516 -0.000000 -0.000002 -16.838305 677.095558 15.824510 -8.944418
-15.958296 28.336004 35.512909 2794.081546 43.025356 -13.228503 -0.673001 0.623901 5.369206 -7.428138 22.865446 -12.788529 -0.000002 0.000002 4.415006 3.032990 -6.062584 -0.878625 0.000003 -0.000005 10.273303 -13.566221 -5.840937 2.426844 0.000000 -0.000008 2.173895 0.013926 -6.331391 0.190280 2.359902 -0.565202 5.928099 6.381751 1.775089 -31.208196 5.443697 -0.000005 0.000000 -76.739798 319.598294 -133.534433 -0.000001 0.000000 -10.615797 932.022807 -155.502671 183.141551 -0.000006 -0.000003 -13.110310 -1776.541492 209.455838 -35.775322 -2.636603 -1.718807 6.889700 168.908666 -176.803791 194.758514 -4.139096 0.000001 -0.000007 289.607206 -130.793096 689.659719 -0.000009 0.000005 -10.471802 -51.809464 -38.534749 -412.007693 -0.000007 0.000001 -12.281885 365.229886 -19.422990 -9.746200 2.273400 0.176701 -2.518002 -511.301677 -160.703805 -174.720747 -0.000000 -0.000003 -20.456396 850.770002 125.155949 -136.605067 -0.000006 -0.000002 -16.635298 -326.572217 21.024016 18.479038 -1.914797 0.018101 -2.699301 63.944108 218.617690 68.856114 0.000006 -0.000009 -20.148901 -411.975099 -237.422348 93.126050 0.000001 -0.000002 -16.838306 677.780217 17.096472 -8.856169
-15.383006 28.671713 35.291702 2796.110495 43.595451 -12.792861 -0.673002 0.623896 5.369206 -7.359297 23.827748 -13.563815 -0.000002 -0.000002 4.415002 3.302727 -6.270013 -0.912099 -0.000003 0.000000 10.273295 -14.036184 -6.480609 1.286679 0.000001 -0.000002 2.173903 -0.107818 -6.653630 0.505399 2.359898 -0.565199 5.928098 2.513093 3.582987 -30.679721 5.443696 0.000001 0.000006 -74.409119 320.541270 -130.409376 0.000002 -0.000002 -10.615789 933.937555 -154.482090 183.954616 -0.000002 0.000008 -13.110310 -1775.935081 209.857084 -35.573073 -2.636606 -1.718805 6.889698 170.690908 -176.006844 191.665148 -4.139096 0.000006 0.000000 284.449430 -128.246022 684.276655 -0.000003 0.000007 -10.471796 -52.818147 -40.880666 -415.392325 -0.000003 0.000001 -12.281896 360.638359 -17.736328 -8.413103 2.273400 0.176702 -2.518006 -507.067179 -158.839068 -173.333617 -0.000000 0.000002 -20.456398 844.684468 124.120547 -132.071461 -0.000003 -0.000003 -16.635298 -323.273536 18.273848 20.885095 -1.914793 0.018104 -2.699297 63.552984 218.797706 66.366305 0.000003 0.000003 -20.148903 -409.506341 -235.872605 92.801364 0.000003 -0.000003 -16.838299 678.804745 18.433987 -8.633684
-14.792400 29.044012 35.065605 2798.415492 44.630269 -12.473636 -0.673003 0.623894 5.369203 -7.675602 24.254613 -14.245211 -0.000001 -0.000001 4.415003 3.631796 -6.437174 -0.817913 -0.000002 -0.000001 10.273300 -14.949433 -7.034822 0.256794 -0.000002 -0.000007 2.173901 0.396800 -6.897616 0.420646 2.359900 -0.565201 5.928102 1.096543 4.711060 -30.295639 5.443698 0.000005 -0.000002 -74.625834 321.514490 -127.906193 0.000001 -0.000004 -10.615788 936.008140 -153.682303 184.747779 -0.000007 0.000002 -13.110301 -1775.298944 209.994958 -35.119282 -2.636605 -1.718802 6.889704 171.537810 -177.545372 188.250505 -4.139095 0.000008 0.000002 282.374036 -126.407486 682.180060 -0.000006 0.000003 -10.471803 -54.448547 -42.329329 -419.172971 0.000001 -0.000006 -12.281898 357.852599 -16.599725 -6.608823 2.273397 0.176704 -2.518006 -502.243098 -156.495289 -171.318001 -0.000001 0.000000 -20.456396 837.742318 123.048262 -127.212847 -0.000007 0.000002 -16.635298 -320.537144 16.135873 22.500682 -1.914801 0.018106 -2.699303 62.863292 218.601065 63.311626 0.000003 -0.000006 -20.148905 -406.512423 -234.241611 92.501737 0.000006 -0.000002 -16.838301 680.053959 19.721550 -8.521155
-14.190197 29.457510 34.824909 2800.902992 45.020021 -12.214825 -0.673010 0.623895 5.369204 -8.355827 25.163284 -14.700958 -0.000002 0.000002 4.415009 4.101270 -6.529701 -0.835135 -0.000005 -0.000003 10.273301 -15.410099 -7.488613 -0.882520 -0.000003 -0.000009 2.173891 0.422606 -7.131628 0.519438 2.359894 -0.565203 5.928103 -0.038047 7.720416 -29.797622 5.443692 0.000001 0.000001 -75.278800 321.962905 -127.368849 -0.000006 0.000001 -10.615795 938.513235 -152.823324 185.731736 -0.000011 -0.000002 -13.110306 -1774.901810 210.367791 -35.292045 -2.636604 -1.718807 6.889700 172.698342 -179.269912 185.271982 -4.139103 0.000006 0.000007 279.865990 -124.018941 679.994345 -0.000010 -0.000000 -10.471801 -56.366905 -44.001202 -423.030935 -0.000006 -0.000005 -12.281894 355.008153 -15.609205 -4.896440 2.273395 0.176703 -2.518003 -497.207172 -154.606564 -169.297795 0.000002 -0.000003 -20.456398 829.211193 122.552240 -121.468945 -0.000007 -0.000001 -16.635300 -317.655433 14.567298 24.092872 -1.914800 0.018108 -2.699305 62.457394 218.610955 60.986233 0.000004 -0.000007 -20.148903 -403.213770 -232.293040 92.077309 0.000000 -0.000004 -16.838301 681.113021 20.714804 -8.580090
